Normalized EMG Linear Envelopes
nRows=245
nColumns=4

endheader
time	 med_gas_r	  soleus_r	 tib_ant_r	
2.72782	  0.001731	  0.004805	  0.001408	
2.76109	  0.001914	  0.004784	  0.001455	
2.79435	  0.002230	  0.004772	  0.001493	
2.82762	  0.002697	  0.004774	  0.001517	
2.86089	  0.003339	  0.004786	  0.001524	
2.89415	  0.004181	  0.004802	  0.001520	
2.92742	  0.005228	  0.004814	  0.001510	
2.96069	  0.006401	  0.004820	  0.001501	
2.99395	  0.007504	  0.004822	  0.001499	
3.02722	  0.008261	  0.004823	  0.001505	
3.06048	  0.008439	  0.004827	  0.001515	
3.09375	  0.007983	  0.004831	  0.001528	
3.12702	  0.007051	  0.004835	  0.001542	
3.16028	  0.005923	  0.004836	  0.001556	
3.19355	  0.004852	  0.004834	  0.001571	
3.22681	  0.003982	  0.004831	  0.001582	
3.26008	  0.003346	  0.004831	  0.001588	
3.29335	  0.002915	  0.004837	  0.001584	
3.32661	  0.002646	  0.004852	  0.001570	
3.35988	  0.002499	  0.004880	  0.001548	
3.39315	  0.002436	  0.004919	  0.001521	
3.42641	  0.002425	  0.004967	  0.001494	
3.45968	  0.002440	  0.005024	  0.001468	
3.49294	  0.002468	  0.005086	  0.001449	
3.52621	  0.002501	  0.005148	  0.001437	
3.55948	  0.002538	  0.005194	  0.001436	
3.59274	  0.002582	  0.005209	  0.001444	
3.62601	  0.002639	  0.005181	  0.001457	
3.65927	  0.002715	  0.005116	  0.001471	
3.69254	  0.002813	  0.005031	  0.001482	
3.72581	  0.002929	  0.004947	  0.001489	
3.75907	  0.003058	  0.004878	  0.001492	
3.79234	  0.003193	  0.004830	  0.001489	
3.8256	  0.003323	  0.004803	  0.001483	
3.85887	  0.003431	  0.004795	  0.001472	
3.89214	  0.003498	  0.004805	  0.001459	
3.9254	  0.003511	  0.004834	  0.001445	
3.95867	  0.003471	  0.004877	  0.001431	
3.99194	  0.003390	  0.004930	  0.001418	
4.0252	  0.003283	  0.004987	  0.001408	
4.05847	  0.003163	  0.005037	  0.001400	
4.09173	  0.003039	  0.005073	  0.001397	
4.125	  0.002920	  0.005087	  0.001397	
4.15827	  0.002819	  0.005074	  0.001400	
4.19153	  0.002745	  0.005039	  0.001408	
4.2248	  0.002701	  0.005003	  0.001423	
4.25806	  0.002683	  0.004993	  0.001448	
4.29133	  0.002683	  0.005039	  0.001492	
4.3246	  0.002695	  0.005146	  0.001562	
4.35786	  0.002715	  0.005293	  0.001670	
4.39113	  0.002743	  0.005435	  0.001822	
4.4244	  0.002777	  0.005524	  0.002021	
4.45766	  0.002810	  0.005530	  0.002264	
4.49093	  0.002830	  0.005454	  0.002527	
4.52419	  0.002827	  0.005318	  0.002767	
4.55746	  0.002796	  0.005149	  0.002900	
4.59073	  0.002737	  0.004957	  0.002804	
4.62399	  0.002655	  0.004727	  0.002311	
4.65726	  0.002545	  0.004414	  0.001222	
4.69052	  0.002396	  0.003962	 -0.000666	
4.72379	  0.002196	  0.003314	 -0.003533	
4.75706	  0.001945	  0.002437	 -0.007470	
4.79032	  0.001659	  0.001343	 -0.012393	
4.82359	  0.001375	  0.000117	 -0.017899	
4.85685	  0.001151	 -0.001047	 -0.023105	
4.89012	  0.001068	 -0.001817	 -0.026494	
4.92339	  0.001236	 -0.001694	 -0.025812	
4.95665	  0.001797	 -0.000010	 -0.018006	
4.98992	  0.002919	  0.004066	  0.000778	
5.02319	  0.004794	  0.011487	  0.034953	
5.05645	  0.007603	  0.023204	  0.088736	
5.08972	  0.011461	  0.039870	  0.164755	
5.12298	  0.016318	  0.061396	  0.262391	
5.15625	  0.021866	  0.086525	  0.376675	
5.18952	  0.027520	  0.112744	  0.498602	
5.22278	  0.032530	  0.136743	  0.617043	
5.25605	  0.036224	  0.155388	  0.721614	
5.28931	  0.038252	  0.166779	  0.805264	
5.32258	  0.038717	  0.170903	  0.865394	
5.35585	  0.038079	  0.169513	  0.903041	
5.38911	  0.036917	  0.165306	  0.920849	
5.42238	  0.035687	  0.160830	  0.921287	
5.45565	  0.034600	  0.157678	  0.906339	
5.48891	  0.033650	  0.156280	  0.878604	
5.52218	  0.032727	  0.156211	  0.842531	
5.55544	  0.031742	  0.156752	  0.804403	
5.58871	  0.030713	  0.157379	  0.770797	
5.62198	  0.029763	  0.157981	  0.746457	
5.65524	  0.029044	  0.158764	  0.732898	
5.68851	  0.028633	  0.159940	  0.728444	
5.72177	  0.028481	  0.161452	  0.729545	
5.75504	  0.028463	  0.162916	  0.732596	
5.78831	  0.028480	  0.163837	  0.735375	
5.82157	  0.028532	  0.163952	  0.737542	
5.85484	  0.028722	  0.163490	  0.740110	
5.8881	  0.029181	  0.163117	  0.744207	
5.92137	  0.029975	  0.163555	  0.749728	
5.95464	  0.031032	  0.165030	  0.754626	
5.9879	  0.032133	  0.166907	  0.755297	
6.02117	  0.032980	  0.167875	  0.748007	
6.05444	  0.033306	  0.166647	  0.730722	
6.0877	  0.032992	  0.162769	  0.704486	
6.12097	  0.032119	  0.156912	  0.673574	
6.15423	  0.030956	  0.150479	  0.644154	
6.1875	  0.029872	  0.144849	  0.621997	
6.22077	  0.029197	  0.140823	  0.610459	
6.25403	  0.029102	  0.138553	  0.609811	
6.2873	  0.029541	  0.137786	  0.617980	
6.32056	  0.030297	  0.138093	  0.631701	
6.35383	  0.031098	  0.138947	  0.647120	
6.3871	  0.031727	  0.139722	  0.659904	
6.42036	  0.032072	  0.139796	  0.665753	
6.45363	  0.032128	  0.138775	  0.661836	
6.4869	  0.031975	  0.136733	  0.648555	
6.52016	  0.031757	  0.134268	  0.630249	
6.55343	  0.031649	  0.132300	  0.613885	
6.58669	  0.031804	  0.131662	  0.606084	
6.61996	  0.032290	  0.132702	  0.610027	
6.65323	  0.033047	  0.135110	  0.624105	
6.68649	  0.033895	  0.138101	  0.643062	
6.71976	  0.034605	  0.140873	  0.660709	
6.75302	  0.034984	  0.143043	  0.672306	
6.78629	  0.034945	  0.144750	  0.675408	
6.81956	  0.034506	  0.146366	  0.669407	
6.85282	  0.033749	  0.148124	  0.654969	
6.88609	  0.032774	  0.149958	  0.634063	
6.91935	  0.031675	  0.151625	  0.610175	
6.95262	  0.030544	  0.152889	  0.587816	
6.98589	  0.029479	  0.153654	  0.571136	
7.01915	  0.028604	  0.154094	  0.562549	
7.05242	  0.028061	  0.154778	  0.562369	
7.08569	  0.027992	  0.156539	  0.569477	
7.11895	  0.028488	  0.159967	  0.582130	
7.15222	  0.029528	  0.164847	  0.598113	
7.18548	  0.030961	  0.170054	  0.614452	
7.21875	  0.032528	  0.174100	  0.627595	
7.25202	  0.033944	  0.175922	  0.634651	
7.28528	  0.034986	  0.175320	  0.635003	
7.31855	  0.035556	  0.172793	  0.630874	
7.35181	  0.035678	  0.169048	  0.626100	
7.38508	  0.035424	  0.164609	  0.623959	
7.41835	  0.034819	  0.159766	  0.625743	
7.45161	  0.033811	  0.154725	  0.630917	
7.48488	  0.032343	  0.149747	  0.638156	
7.51815	  0.030481	  0.145146	  0.646063	
7.55141	  0.028469	  0.141184	  0.653198	
7.58468	  0.026664	  0.137958	  0.658074	
7.61794	  0.025386	  0.135349	  0.659580	
7.65121	  0.024804	  0.133075	  0.657442	
7.68448	  0.024917	  0.130843	  0.652124	
7.71774	  0.025599	  0.128581	  0.644347	
7.75101	  0.026662	  0.126626	  0.634996	
7.78427	  0.027894	  0.125753	  0.625634	
7.81754	  0.029097	  0.126978	  0.618915	
7.85081	  0.030119	  0.131177	  0.618044	
7.88407	  0.030874	  0.138640	  0.625315	
7.91734	  0.031316	  0.148770	  0.640608	
7.9506	  0.031410	  0.160142	  0.660917	
7.98387	  0.031131	  0.170987	  0.681308	
8.01714	  0.030519	  0.179823	  0.696795	
8.0504	  0.029728	  0.185807	  0.704157	
8.08367	  0.028991	  0.188610	  0.702836	
8.11694	  0.028501	  0.188106	  0.694592	
8.1502	  0.028305	  0.184261	  0.682142	
8.18347	  0.028288	  0.177316	  0.667649	
8.21673	  0.028272	  0.167976	  0.652032	
8.25	  0.028145	  0.157397	  0.635481	
8.28327	  0.027931	  0.147016	  0.618504	
8.31653	  0.027769	  0.138357	  0.602456	
8.3498	  0.027830	  0.132764	  0.589079	
8.38306	  0.028208	  0.131007	  0.579493	
8.41633	  0.028849	  0.132928	  0.573460	
8.4496	  0.029552	  0.137434	  0.569490	
8.48286	  0.030051	  0.142946	  0.565758	
8.51613	  0.030147	  0.148045	  0.561227	
8.5494	  0.029811	  0.151908	  0.556201	
8.58266	  0.029201	  0.154337	  0.551974	
8.61593	  0.028578	  0.155498	  0.549927	
8.64919	  0.028173	  0.155587	  0.550761	
8.68246	  0.028083	  0.154608	  0.554297	
8.71573	  0.028238	  0.152349	  0.559779	
8.74899	  0.028452	  0.148613	  0.566260	
8.78226	  0.028531	  0.143569	  0.572819	
8.81552	  0.028367	  0.137965	  0.578656	
8.84879	  0.027983	  0.132959	  0.583293	
8.88206	  0.027509	  0.129653	  0.586877	
8.91532	  0.027104	  0.128659	  0.590316	
8.94859	  0.026897	  0.129990	  0.594956	
8.98185	  0.026978	  0.133352	  0.601867	
9.01512	  0.027425	  0.138542	  0.611126	
9.04839	  0.028334	  0.145566	  0.621476	
9.08165	  0.029785	  0.154345	  0.630628	
9.11492	  0.031750	  0.164308	  0.636211	
9.14819	  0.034022	  0.174296	  0.636898	
9.18145	  0.036232	  0.182882	  0.632950	
9.21472	  0.037967	  0.188879	  0.625742	
9.24798	  0.038949	  0.191705	  0.616746	
9.28125	  0.039159	  0.191491	  0.606973	
9.31452	  0.038836	  0.188979	  0.597260	
9.34778	  0.038339	  0.185223	  0.588830	
9.38105	  0.037955	  0.181178	  0.583255	
9.41431	  0.037772	  0.177339	  0.581793	
9.44758	  0.037707	  0.173722	  0.584850	
9.48085	  0.037650	  0.170234	  0.592132	
9.51411	  0.037574	  0.167110	  0.603120	
9.54738	  0.037512	  0.164935	  0.617013	
9.58065	  0.037443	  0.164196	  0.631911	
9.61391	  0.037237	  0.164779	  0.644007	
9.64718	  0.036709	  0.165835	  0.647819	
9.68044	  0.035717	  0.166029	  0.637634	
9.71371	  0.034179	  0.163887	  0.609322	
9.74698	  0.032028	  0.158045	  0.561519	
9.78024	  0.029188	  0.147539	  0.495881	
9.81351	  0.025660	  0.132222	  0.416755	
9.84677	  0.021622	  0.113139	  0.330598	
9.88004	  0.017444	  0.092459	  0.245017	
9.91331	  0.013572	  0.072798	  0.167288	
9.94657	  0.010352	  0.056271	  0.102738	
9.97984	  0.007929	  0.043875	  0.053748	
10.0131	  0.006260	  0.035527	  0.019875	
10.0464	  0.005208	  0.030595	 -0.001178	
10.0796	  0.004634	  0.028383	 -0.012404	
10.1129	  0.004426	  0.028250	 -0.016716	
10.1462	  0.004484	  0.029419	 -0.016596	
10.1794	  0.004683	  0.030838	 -0.014016	
10.2127	  0.004881	  0.031353	 -0.010427	
10.246	  0.004955	  0.030134	 -0.006780	
10.2792	  0.004847	  0.027038	 -0.003605	
10.3125	  0.004582	  0.022614	 -0.001125	
10.3458	  0.004233	  0.017759	  0.000631	
10.379	  0.003877	  0.013279	  0.001742	
10.4123	  0.003563	  0.009631	  0.002340	
10.4456	  0.003304	  0.006932	  0.002576	
10.4788	  0.003097	  0.005103	  0.002589	
10.5121	  0.002930	  0.003995	  0.002486	
10.5454	  0.002798	  0.003447	  0.002335	
10.5786	  0.002695	  0.003293	  0.002173	
10.6119	  0.002618	  0.003374	  0.002020	
10.6452	  0.002563	  0.003563	  0.001885	
10.6784	  0.002520	  0.003773	  0.001775	
10.7117	  0.002485	  0.003964	  0.001691	
10.745	  0.002449	  0.004127	  0.001631	
10.7782	  0.002406	  0.004263	  0.001591	
10.8115	  0.002355	  0.004375	  0.001565	
10.8448	  0.002297	  0.004466	  0.001548	
